<svg width="74" height="55" viewBox="0 0 74 55" fill="none" xmlns="http://www.w3.org/2000/svg">
<path d="M18.7954 21.6948H27.4735V26.0304H18.7954V21.6948Z" fill="#F54343"/>
<path d="M74.0001 48.7381L62.8632 34.7087H68.8862L73.9974 4.33902H41.7436V8.67805H37.408V0H0V8.67805H4.33556V4.33555H33.0725V8.67805H10.1244V30.3732H5.78536V38.92C2.45074 39.8663 0 42.9364 0 46.5704C0 50.9558 3.56787 54.5235 7.95314 54.5235C11.5871 54.5235 14.6572 52.0728 15.6035 48.7381H36.2608C37.2072 52.0729 40.2775 54.5235 43.9112 54.5235C47.545 54.5235 50.6153 52.0728 51.5616 48.7381H74.0001ZM60.5426 44.4026V38.7584L65.0231 44.4026H60.5426ZM54.7572 30.3732V17.3526H67.4108L65.2195 30.3732H54.7572ZM46.0791 17.3525H50.4216V30.373H46.0791V17.3525ZM68.8713 8.67458L68.1405 13.0171H46.0791V8.67458H68.8713ZM14.4599 13.0135H41.7436V30.373H14.4599V13.0135ZM7.95314 50.1879C5.95835 50.1879 4.33556 48.565 4.33556 46.5704C4.33556 44.5757 5.95835 42.9528 7.95314 42.9528C9.94793 42.9528 11.5707 44.5756 11.5707 46.5704C11.5707 48.5651 9.94793 50.1879 7.95314 50.1879ZM43.9114 50.1879C41.9166 50.1879 40.2938 48.5651 40.2938 46.5704C40.2938 44.5756 41.9166 42.9528 43.9114 42.9528C45.9062 42.9528 47.529 44.5756 47.529 46.5704C47.529 48.5651 45.906 50.1879 43.9114 50.1879ZM43.9114 38.6172C40.2775 38.6172 37.2073 41.0678 36.261 44.4026H15.6035C14.8529 41.7576 12.7659 39.6706 10.1209 38.92V34.7087H56.207V44.4026H51.5617C50.6154 41.0678 47.5451 38.6172 43.9114 38.6172Z" fill="#F54343"/>
</svg>
