<svg width="62" height="54" viewBox="0 0 62 54" fill="none" xmlns="http://www.w3.org/2000/svg">
<path d="M53.656 33.2227C52.964 30.7527 50.932 28.79 48.3229 28.2682L45.8261 27.7688V22.9566C45.8261 19.6123 43.1053 16.8914 39.7609 16.8914H27.6304C24.2994 16.8914 21.5879 19.5908 21.5663 22.9168L13.4782 21.2992V6.78275C13.4782 3.43839 10.7574 0.717529 7.413 0.717529H2.02178C0.905176 0.717529 0 1.62271 0 2.73919C0 3.85567 0.905176 4.76097 2.02178 4.76097H7.41312C8.52791 4.76097 9.4349 5.66796 9.4349 6.78275C9.4349 8.59468 9.4349 32.1754 9.4349 33.2687C4.82643 34.2081 1.34789 38.2923 1.34789 43.1741C1.34789 48.748 5.88261 53.2828 11.4566 53.2828C16.3382 53.2828 20.4226 49.8043 21.3619 45.1958H41.9861C42.9253 49.8042 47.0097 53.2828 51.8915 53.2828C57.4654 53.2828 62.0001 48.748 62.0001 43.1741C62 38.2022 58.391 34.0602 53.656 33.2227ZM25.6087 22.9566C25.6087 21.8419 26.5157 20.9349 27.6304 20.9349H39.7609C40.8757 20.9349 41.7827 21.8419 41.7827 22.9566V26.9601L25.6088 23.7253V22.9566H25.6087ZM11.4566 49.2392C8.11219 49.2392 5.39134 46.5183 5.39134 43.174C5.39134 39.8296 8.11219 37.1088 11.4566 37.1088C14.8009 37.1088 17.5218 39.8296 17.5218 43.174C17.5218 46.5183 14.8009 49.2392 11.4566 49.2392ZM41.9857 41.1523H21.3621C20.5551 37.1709 17.3903 34.0614 13.4783 33.2685V31.0436V25.4228C14.6073 25.6486 45.5905 31.8452 47.5299 32.2332C48.2739 32.382 48.9059 32.8105 49.3248 33.3955C45.6204 34.3685 42.7598 37.3818 41.9857 41.1523ZM51.8913 49.2392C48.547 49.2392 45.8261 46.5183 45.8261 43.174C45.8261 39.8296 48.547 37.1088 51.8913 37.1088C55.2357 37.1088 57.9566 39.8296 57.9566 43.174C57.9566 46.5183 55.2357 49.2392 51.8913 49.2392Z" fill="#F54343"/>
</svg>
