<svg width="58" height="58" viewBox="0 0 58 58" fill="none" xmlns="http://www.w3.org/2000/svg">
<path d="M55.9601 49.2144V44.6992C58.5062 44.6992 58.5083 41.0742 55.9601 41.0742V37.7261C55.9601 36.725 55.1486 35.9136 54.1476 35.9136H53.5558V25.3172C53.5558 19.4315 48.7674 14.6431 42.8816 14.6431H41.8833C41.8833 12.9368 41.8833 7.88732 41.8833 6.16737C41.8834 2.76667 39.1167 0 35.716 0H22.5003C19.0995 0 16.3329 2.76667 16.3329 6.16737V14.6431H15.3346C9.44883 14.6431 4.66043 19.4315 4.66043 25.3172V35.9136H4.09629C3.09522 35.9136 2.28379 36.725 2.28379 37.7261V41.0742H1.93579C0.934725 41.0742 0.123291 41.8856 0.123291 42.8867C0.123291 43.8878 0.934725 44.6992 1.93579 44.6992H2.28379V49.2144H1.93579C0.934725 49.2144 0.123291 50.0258 0.123291 51.0269C0.123291 52.0279 0.934725 52.8394 1.93579 52.8394H2.28379V56.1875C2.28379 57.1886 3.09522 58 4.09629 58H54.1476C55.1486 58 55.9601 57.1886 55.9601 56.1875V52.8394C57.1865 52.8394 57.8768 51.9402 57.8768 51.0269C57.8768 50.1072 57.1814 49.2144 55.9601 49.2144V49.2144ZM42.8818 18.2682C46.7687 18.2682 49.9309 21.4304 49.9309 25.3173V35.9137H47.3157V29.126C47.3157 25.9522 44.9461 23.323 41.8834 22.9106V18.2682H42.8818ZM14.5258 35.9136V29.1259C14.5258 27.6654 15.7137 26.4775 17.1742 26.4775H41.0423C42.5027 26.4775 43.6907 27.6654 43.6907 29.1259V35.9136H14.5258ZM19.9579 11.5813H38.2584V22.8525H36.1477C35.7748 19.2976 32.7603 16.5174 29.1082 16.5174C25.4562 16.5174 22.4417 19.2976 22.0688 22.8525H19.9579V11.5813ZM32.4805 22.8525H25.736C26.0772 21.3045 27.4591 20.1424 29.1082 20.1424C30.7574 20.1424 32.1392 21.3045 32.4805 22.8525ZM19.9579 6.16737C19.9579 4.76552 21.0984 3.625 22.5003 3.625H35.716C37.1179 3.625 38.2583 4.76552 38.2583 6.16737V7.95631H19.9579V6.16737ZM8.28555 25.3172C8.28555 21.4303 11.4478 18.2681 15.3347 18.2681H16.333V22.9105C13.2705 23.3229 10.9009 25.9521 10.9009 29.1259V35.9136H8.28555V25.3172ZM5.90879 52.8394H6.25668C7.25774 52.8394 8.06918 52.0279 8.06918 51.0269C8.06918 50.0258 7.25774 49.2144 6.25668 49.2144H5.90879V44.6992H6.25668C7.25774 44.6992 8.06918 43.8878 8.06918 42.8867C8.06918 41.8856 7.25774 41.0742 6.25668 41.0742H5.90879V39.5386H14.7966V45.1443H14.4486C13.4475 45.1443 12.6361 45.9557 12.6361 46.9568C12.6361 47.9578 13.4475 48.7693 14.4486 48.7693H14.7966V54.375H5.90879V52.8394ZM18.4216 48.7694H18.7695C19.7706 48.7694 20.582 47.958 20.582 46.9569C20.582 45.9558 19.7706 45.1444 18.7695 45.1444H18.4216V39.5386H27.3094V41.0742H26.9615C25.9605 41.0742 25.149 41.8856 25.149 42.8867C25.149 43.8878 25.9605 44.6992 26.9615 44.6992H27.3094V49.2144H26.9615C25.9605 49.2144 25.149 50.0258 25.149 51.0269C25.149 52.0279 25.9605 52.8394 26.9615 52.8394H27.3094V54.375H18.4216V48.7694ZM30.9344 52.8394H31.2823C32.2834 52.8394 33.0948 52.0279 33.0948 51.0269C33.0948 50.0258 32.2834 49.2144 31.2823 49.2144H30.9344V44.6992H31.2823C32.2834 44.6992 33.0948 43.8878 33.0948 42.8867C33.0948 41.8856 32.2834 41.0742 31.2823 41.0742H30.9344V39.5386H39.8223V45.1443H39.4744C38.4733 45.1443 37.6619 45.9557 37.6619 46.9568C37.6619 47.9578 38.4733 48.7693 39.4744 48.7693H39.8223V54.375H30.9344V52.8394ZM52.3351 54.375H43.4473V48.7694H43.7953C44.7963 48.7694 45.6078 47.958 45.6078 46.9569C45.6078 45.9558 44.7963 45.1444 43.7953 45.1444H43.4473V39.5386H52.3351V41.0742H51.7433C50.7422 41.0742 49.9308 41.8856 49.9308 42.8867C49.9308 43.8878 50.7422 44.6992 51.7433 44.6992H52.3351V49.2144H51.7433C50.7422 49.2144 49.9308 50.0258 49.9308 51.0269C49.9308 52.0279 50.7422 52.8394 51.7433 52.8394H52.3351V54.375Z" fill="#F54343"/>
</svg>
