<svg width="63" height="15" viewBox="0 0 63 15" fill="none" xmlns="http://www.w3.org/2000/svg">
<path d="M8 0C3.5888 0 0 3.3645 0 7.5C0 11.6355 3.5888 15 8 15C12.4112 15 16 11.6355 16 7.5C16 3.3645 12.4112 0 8 0ZM8 10.5C6.23552 10.5 4.8 9.1542 4.8 7.5C4.8 5.8458 6.23552 4.5 8 4.5C9.76448 4.5 11.2 5.8458 11.2 7.5C11.2 9.1542 9.76448 10.5 8 10.5Z" fill="#F54343"/>
<path d="M55 0C50.5888 0 47 3.3645 47 7.5C47 11.6355 50.5888 15 55 15C59.4112 15 63 11.6355 63 7.5C63 3.3645 59.4112 0 55 0ZM55 10.5C53.2355 10.5 51.8 9.1542 51.8 7.5C51.8 5.8458 53.2355 4.5 55 4.5C56.7645 4.5 58.2 5.8458 58.2 7.5C58.2 9.1542 56.7645 10.5 55 10.5Z" fill="#F54343"/>
<path d="M31.5 0C27.3645 0 24 3.3645 24 7.5C24 11.6355 27.3645 15 31.5 15C35.6355 15 39 11.6355 39 7.5C39 3.3645 35.6355 0 31.5 0ZM31.5 10.5C29.8458 10.5 28.5 9.1542 28.5 7.5C28.5 5.8458 29.8458 4.5 31.5 4.5C33.1542 4.5 34.5 5.8458 34.5 7.5C34.5 9.1542 33.1542 10.5 31.5 10.5Z" fill="#F54343"/>
</svg>
