<svg width="64" height="64" viewBox="0 0 64 64" fill="none" xmlns="http://www.w3.org/2000/svg">
<path d="M58.1306 29.542L52.1965 35.4713L50.9219 34.1972L56.8544 28.2665C59.4537 25.6618 55.516 21.5674 52.8346 24.2477L46.901 30.1795L45.6258 28.904L51.5589 22.9748C54.1601 20.369 50.2197 16.2771 47.5392 18.956L41.4901 25.0016C41.4 25.0917 41.3285 25.1987 41.2797 25.3163C41.2309 25.434 41.2058 25.5602 41.2058 25.6876C41.2058 25.815 41.2309 25.9411 41.2797 26.0588C41.3285 26.1765 41.4 26.2835 41.4901 26.3735C41.5803 26.4636 41.6873 26.5351 41.805 26.5838C41.9228 26.6326 42.049 26.6576 42.1765 26.6576C42.304 26.6576 42.4302 26.6325 42.5479 26.5838C42.6657 26.535 42.7727 26.4636 42.8628 26.3735L48.9116 20.3278C49.0381 20.2026 49.1987 20.1175 49.3734 20.0832C49.548 20.0489 49.7289 20.067 49.8933 20.1351C50.0578 20.2032 50.1984 20.3183 50.2976 20.466C50.3968 20.6138 50.4501 20.7875 50.4508 20.9654C50.4508 21.6665 50.2301 21.4309 43.5671 28.2184C43.3851 28.4004 43.2828 28.6471 43.2828 28.9043C43.2828 29.1616 43.3851 29.4083 43.5671 29.5902C44.0178 30.0406 46.3342 32.5213 46.9008 32.5213C47.622 32.5213 47.2589 32.4226 54.2076 25.6205C54.3339 25.4951 54.4945 25.4098 54.6692 25.3753C54.8439 25.3409 55.0249 25.3589 55.1894 25.4271C55.3539 25.4952 55.4946 25.6105 55.5937 25.7583C55.6928 25.9062 55.7459 26.0801 55.7464 26.258C55.7464 26.9589 55.5291 26.7201 48.8629 33.5125C48.6809 33.6944 48.5787 33.9411 48.5787 34.1983C48.5787 34.4556 48.6809 34.7023 48.8629 34.8842L51.5101 37.5299C51.6002 37.62 51.7072 37.6914 51.8249 37.7402C51.9427 37.789 52.0689 37.814 52.1964 37.814C52.3238 37.814 52.45 37.789 52.5678 37.7402C52.6855 37.6914 52.7925 37.62 52.8827 37.5299L59.5047 30.9128C59.631 30.7873 59.7916 30.702 59.9664 30.6676C60.1411 30.6331 60.3221 30.6512 60.4866 30.7194C60.6511 30.7876 60.7917 30.903 60.8907 31.051C60.9897 31.1989 61.0427 31.3728 61.0429 31.5508C61.0429 32.2576 61.1241 31.7098 48.8634 44.0973C47.7674 45.1996 46.3854 45.9744 44.8728 46.3344C43.3603 46.6944 41.7772 46.6254 40.3018 46.1352L44.9531 41.4863C48.4982 37.8574 43.0885 32.7136 39.6087 36.1447L34.9592 40.7916C34.5439 39.5188 34.4376 38.1655 34.6491 36.8435C34.8607 35.5216 35.384 34.2689 36.1758 33.1891C36.3282 32.9822 36.3922 32.7234 36.3539 32.4693C36.3156 32.2153 36.178 31.9869 35.9713 31.8341C35.7647 31.6814 35.5058 31.6168 35.2516 31.6545C34.9974 31.6923 34.7685 31.8293 34.6152 32.0355C33.5437 33.4961 32.873 35.2113 32.6695 37.011C32.4661 38.8107 32.737 40.6323 33.4554 42.295L31.6742 44.0743C31.4905 43.9029 31.2474 43.8094 30.9962 43.8137C30.7449 43.818 30.5052 43.9197 30.3275 44.0973L22.6012 51.8195C18.2381 52.7019 16.5373 58.1514 19.7358 61.3481C22.9034 64.514 28.3766 62.895 29.2698 58.4843L36.9959 50.7622C37.1735 50.5846 37.2751 50.345 37.2795 50.0939C37.2838 49.8429 37.1905 49.5999 37.0191 49.4163L38.8011 47.6353C40.703 48.4704 42.8134 48.7104 44.8544 48.3238C46.8955 47.9372 48.7716 46.9421 50.236 45.4694L62.1518 33.56C64.7451 30.9603 60.8115 26.8529 58.1306 29.542ZM27.4047 57.8794C26.9801 60.8622 23.2889 62.1558 21.1083 59.9763C18.9375 57.8067 20.2141 54.1077 23.2071 53.6833C23.8009 53.599 23.5416 53.5291 31.0143 46.1553L34.9376 50.0765C27.3534 57.7531 27.4878 57.2946 27.4047 57.8794ZM35.6474 48.0429L33.048 45.4452L40.9808 37.5168C42.6008 35.8977 45.3404 38.3554 43.58 40.1148L35.6474 48.0429Z" fill="#F54343"/>
<path d="M23.7755 58.5714C24.4743 58.5714 25.0408 58.1466 25.0408 57.6224C25.0408 57.0983 24.4743 56.6735 23.7755 56.6735C23.0767 56.6735 22.5102 57.0983 22.5102 57.6224C22.5102 58.1466 23.0767 58.5714 23.7755 58.5714Z" fill="#F54343"/>
<path d="M19.7653 27.3972L21.0295 26.1332C24.9843 29.9476 24.9122 30.3241 25.6214 30.3241C26.3798 30.3241 26.0126 30.1816 34.8293 21.5196C41.1858 15.2744 42.0378 7.39073 39.5931 2.69659C39.2381 2.0149 34.5668 -0.296788 28.0868 1.98018C26.9773 2.37004 27.4928 4.22687 28.7247 3.79363C33.304 2.18478 36.9916 3.44365 38.0138 3.86716C39.8586 8.29133 39.1163 14.5163 33.4693 20.1603L25.6214 28.0037L22.3899 24.7735L27.6265 19.5397C31.1378 15.9445 25.7801 10.8469 22.331 14.247L17.0945 19.4808L13.8632 16.2517L21.2299 8.88892C22.0658 8.052 20.7825 6.59826 19.8699 7.52962L11.8231 15.572C11.7338 15.6613 11.663 15.7673 11.6147 15.8839C11.5663 16.0005 11.5415 16.1255 11.5415 16.2517C11.5415 16.3779 11.5663 16.5029 11.6147 16.6195C11.663 16.7361 11.7338 16.8421 11.8231 16.9313L15.7345 20.8405L14.4698 22.1046C14.2877 21.9349 14.0469 21.8425 13.798 21.8467C13.5491 21.851 13.3116 21.9516 13.1355 22.1274L5.47954 29.7788C1.14425 30.6559 -0.525079 36.0569 2.64023 39.2204C5.77898 42.3574 11.2019 40.753 12.0869 36.3827L19.7423 28.7313C19.9182 28.5551 20.0189 28.3177 20.0231 28.0689C20.0274 27.8201 19.935 27.5793 19.7653 27.3972ZM10.2393 35.7832C9.817 38.7534 6.14741 40.007 4.0005 37.8617C3.65886 37.5207 3.38783 37.1156 3.20292 36.6698C3.018 36.224 2.92282 35.7461 2.92282 35.2635C2.92282 34.7809 3.018 34.303 3.20292 33.8572C3.38783 33.4113 3.65886 33.0063 4.0005 32.6653C5.20522 31.4611 6.12505 31.8531 6.62428 31.3541L13.8152 24.1669L17.7026 28.0522C10.1884 35.6585 10.3216 35.2038 10.2393 35.7832ZM15.8309 23.4626C18.4884 20.8067 17.6048 21.6965 17.787 21.5075C23.6968 15.8348 23.6637 15.079 24.9657 15.079C26.5557 15.079 27.4086 17.0395 26.2665 18.181L18.4064 26.0368L15.8309 23.4626Z" fill="#F54343"/>
<path d="M6.37755 36.4286C6.90166 36.4286 7.32653 36.0037 7.32653 35.4796C7.32653 34.9555 6.90166 34.5306 6.37755 34.5306C5.85344 34.5306 5.42857 34.9555 5.42857 35.4796C5.42857 36.0037 5.85344 36.4286 6.37755 36.4286Z" fill="#F54343"/>
<path d="M24.0918 6.06122C24.6159 6.06122 25.0408 5.63635 25.0408 5.11225C25.0408 4.58814 24.6159 4.16327 24.0918 4.16327C23.5677 4.16327 23.1429 4.58814 23.1429 5.11225C23.1429 5.63635 23.5677 6.06122 24.0918 6.06122Z" fill="#F54343"/>
<path d="M38.6429 30.102C39.167 30.102 39.5918 29.6772 39.5918 29.1531C39.5918 28.629 39.167 28.2041 38.6429 28.2041C38.1188 28.2041 37.6939 28.629 37.6939 29.1531C37.6939 29.6772 38.1188 30.102 38.6429 30.102Z" fill="#F54343"/>
<path d="M58.1306 29.542L52.1965 35.4713L50.9219 34.1972L56.8544 28.2665C59.4537 25.6618 55.516 21.5674 52.8346 24.2477L46.901 30.1795L45.6258 28.904L51.5589 22.9748C54.1601 20.369 50.2197 16.2771 47.5392 18.956L41.4901 25.0016C41.4 25.0917 41.3285 25.1987 41.2797 25.3163C41.2309 25.434 41.2058 25.5602 41.2058 25.6876C41.2058 25.815 41.2309 25.9411 41.2797 26.0588C41.3285 26.1765 41.4 26.2835 41.4901 26.3735C41.5803 26.4636 41.6873 26.5351 41.805 26.5838C41.9228 26.6326 42.049 26.6576 42.1765 26.6576C42.304 26.6576 42.4302 26.6325 42.5479 26.5838C42.6657 26.535 42.7727 26.4636 42.8628 26.3735L48.9116 20.3278C49.0381 20.2026 49.1987 20.1175 49.3734 20.0832C49.548 20.0489 49.7289 20.067 49.8933 20.1351C50.0578 20.2032 50.1984 20.3183 50.2976 20.466C50.3968 20.6138 50.4501 20.7875 50.4508 20.9654C50.4508 21.6665 50.2301 21.4309 43.5671 28.2184C43.3851 28.4004 43.2828 28.6471 43.2828 28.9043C43.2828 29.1616 43.3851 29.4083 43.5671 29.5902C44.0178 30.0406 46.3342 32.5213 46.9008 32.5213C47.622 32.5213 47.2589 32.4226 54.2076 25.6205C54.3339 25.4951 54.4945 25.4098 54.6692 25.3753C54.8439 25.3409 55.0249 25.3589 55.1894 25.4271C55.3539 25.4952 55.4946 25.6105 55.5937 25.7583C55.6928 25.9062 55.7459 26.0801 55.7464 26.258C55.7464 26.9589 55.5291 26.7201 48.8629 33.5125C48.6809 33.6944 48.5787 33.9411 48.5787 34.1983C48.5787 34.4556 48.6809 34.7023 48.8629 34.8842L51.5101 37.5299C51.6002 37.62 51.7072 37.6914 51.8249 37.7402C51.9427 37.789 52.0689 37.814 52.1964 37.814C52.3238 37.814 52.45 37.789 52.5678 37.7402C52.6855 37.6914 52.7925 37.62 52.8827 37.5299L59.5047 30.9128C59.631 30.7873 59.7916 30.702 59.9664 30.6676C60.1411 30.6331 60.3221 30.6512 60.4866 30.7194C60.6511 30.7876 60.7917 30.903 60.8907 31.051C60.9897 31.1989 61.0427 31.3728 61.0429 31.5508C61.0429 32.2576 61.1241 31.7098 48.8634 44.0973C47.7674 45.1996 46.3854 45.9744 44.8728 46.3344C43.3603 46.6944 41.7772 46.6254 40.3018 46.1352L44.9531 41.4863C48.4982 37.8574 43.0885 32.7136 39.6087 36.1447L34.9592 40.7916C34.5439 39.5188 34.4376 38.1655 34.6491 36.8435C34.8607 35.5216 35.384 34.2689 36.1758 33.1891C36.3282 32.9822 36.3922 32.7234 36.3539 32.4693C36.3156 32.2153 36.178 31.9869 35.9713 31.8341C35.7647 31.6814 35.5058 31.6168 35.2516 31.6545C34.9974 31.6923 34.7685 31.8293 34.6152 32.0355C33.5437 33.4961 32.873 35.2113 32.6695 37.011C32.4661 38.8107 32.737 40.6323 33.4554 42.295L31.6742 44.0743C31.4905 43.9029 31.2474 43.8094 30.9962 43.8137C30.7449 43.818 30.5052 43.9197 30.3275 44.0973L22.6012 51.8195C18.2381 52.7019 16.5373 58.1514 19.7358 61.3481C22.9034 64.514 28.3766 62.895 29.2698 58.4843L36.9959 50.7622C37.1735 50.5846 37.2751 50.345 37.2795 50.0939C37.2838 49.8429 37.1905 49.5999 37.0191 49.4163L38.8011 47.6353C40.703 48.4704 42.8134 48.7104 44.8544 48.3238C46.8955 47.9372 48.7716 46.9421 50.236 45.4694L62.1518 33.56C64.7451 30.9603 60.8115 26.8529 58.1306 29.542ZM27.4047 57.8794C26.9801 60.8622 23.2889 62.1558 21.1083 59.9763C18.9375 57.8067 20.2141 54.1077 23.2071 53.6833C23.8009 53.599 23.5416 53.5291 31.0143 46.1553L34.9376 50.0765C27.3534 57.7531 27.4878 57.2946 27.4047 57.8794ZM35.6474 48.0429L33.048 45.4452L40.9808 37.5168C42.6008 35.8977 45.3404 38.3554 43.58 40.1148L35.6474 48.0429Z" stroke="#F54343"/>
<path d="M23.7755 58.5714C24.4743 58.5714 25.0408 58.1466 25.0408 57.6224C25.0408 57.0983 24.4743 56.6735 23.7755 56.6735C23.0767 56.6735 22.5102 57.0983 22.5102 57.6224C22.5102 58.1466 23.0767 58.5714 23.7755 58.5714Z" stroke="#F54343"/>
<path d="M19.7653 27.3972L21.0295 26.1332C24.9843 29.9476 24.9122 30.3241 25.6214 30.3241C26.3798 30.3241 26.0126 30.1816 34.8293 21.5196C41.1858 15.2744 42.0378 7.39073 39.5931 2.69659C39.2381 2.0149 34.5668 -0.296788 28.0868 1.98018C26.9773 2.37004 27.4928 4.22687 28.7247 3.79363C33.304 2.18478 36.9916 3.44365 38.0138 3.86716C39.8586 8.29133 39.1163 14.5163 33.4693 20.1603L25.6214 28.0037L22.3899 24.7735L27.6265 19.5397C31.1378 15.9445 25.7801 10.8469 22.331 14.247L17.0945 19.4808L13.8632 16.2517L21.2299 8.88892C22.0658 8.052 20.7825 6.59826 19.8699 7.52962L11.8231 15.572C11.7338 15.6613 11.663 15.7673 11.6147 15.8839C11.5663 16.0005 11.5415 16.1255 11.5415 16.2517C11.5415 16.3779 11.5663 16.5029 11.6147 16.6195C11.663 16.7361 11.7338 16.8421 11.8231 16.9313L15.7345 20.8405L14.4698 22.1046C14.2877 21.9349 14.0469 21.8425 13.798 21.8467C13.5491 21.851 13.3116 21.9516 13.1355 22.1274L5.47954 29.7788C1.14425 30.6559 -0.525079 36.0569 2.64023 39.2204C5.77898 42.3574 11.2019 40.753 12.0869 36.3827L19.7423 28.7313C19.9182 28.5551 20.0189 28.3177 20.0231 28.0689C20.0274 27.8201 19.935 27.5793 19.7653 27.3972ZM10.2393 35.7832C9.817 38.7534 6.14741 40.007 4.0005 37.8617C3.65886 37.5207 3.38783 37.1156 3.20292 36.6698C3.018 36.224 2.92282 35.7461 2.92282 35.2635C2.92282 34.7809 3.018 34.303 3.20292 33.8572C3.38783 33.4113 3.65886 33.0063 4.0005 32.6653C5.20522 31.4611 6.12505 31.8531 6.62428 31.3541L13.8152 24.1669L17.7026 28.0522C10.1884 35.6585 10.3216 35.2038 10.2393 35.7832ZM15.8309 23.4626C18.4884 20.8067 17.6048 21.6965 17.787 21.5075C23.6968 15.8348 23.6637 15.079 24.9657 15.079C26.5557 15.079 27.4086 17.0395 26.2665 18.181L18.4064 26.0368L15.8309 23.4626Z" stroke="#F54343"/>
<path d="M6.37755 36.4286C6.90166 36.4286 7.32653 36.0037 7.32653 35.4796C7.32653 34.9555 6.90166 34.5306 6.37755 34.5306C5.85344 34.5306 5.42857 34.9555 5.42857 35.4796C5.42857 36.0037 5.85344 36.4286 6.37755 36.4286Z" stroke="#F54343"/>
<path d="M24.0918 6.06122C24.6159 6.06122 25.0408 5.63635 25.0408 5.11225C25.0408 4.58814 24.6159 4.16327 24.0918 4.16327C23.5677 4.16327 23.1429 4.58814 23.1429 5.11225C23.1429 5.63635 23.5677 6.06122 24.0918 6.06122Z" stroke="#F54343"/>
<path d="M38.6429 30.102C39.167 30.102 39.5918 29.6772 39.5918 29.1531C39.5918 28.629 39.167 28.2041 38.6429 28.2041C38.1188 28.2041 37.6939 28.629 37.6939 29.1531C37.6939 29.6772 38.1188 30.102 38.6429 30.102Z" stroke="#F54343"/>
</svg>
