<svg width="50" height="50" viewBox="0 0 50 50" fill="none" xmlns="http://www.w3.org/2000/svg">
<path d="M48.4375 18.75H44.3125C43.9814 17.7238 43.5687 16.7259 43.0781 15.7656L46 12.8438C46.6059 12.2343 46.6059 11.2501 46 10.6406L39.3594 4C38.7499 3.39414 37.7657 3.39414 37.1562 4L34.2344 6.92187C33.2741 6.43135 32.2762 6.01855 31.25 5.6875V1.5625C31.25 0.699512 30.5505 0 29.6875 0H20.3125C19.4495 0 18.75 0.699512 18.75 1.5625V5.6875C17.7238 6.01855 16.7259 6.43135 15.7656 6.92187L12.8438 4C12.2343 3.39414 11.2501 3.39414 10.6406 4L4 10.6406C3.39414 11.2501 3.39414 12.2343 4 12.8438L6.92187 15.7656C6.43135 16.7259 6.01855 17.7238 5.6875 18.75H1.5625C0.699512 18.75 0 19.4495 0 20.3125V29.6875C0 30.5505 0.699512 31.25 1.5625 31.25H5.6875C6.01855 32.2762 6.43135 33.2741 6.92187 34.2344L4 37.1562C3.39414 37.7657 3.39414 38.7499 4 39.3594L10.625 45.9844C11.2345 46.5902 12.2187 46.5902 12.8281 45.9844L15.75 43.0625C16.7103 43.553 17.7082 43.9658 18.7344 44.2969V48.4375C18.7344 49.3005 19.4339 50 20.2969 50H29.6719C30.5349 50 31.2344 49.3005 31.2344 48.4375V44.3125C32.2605 43.9814 33.2585 43.5687 34.2188 43.0781L37.1406 46C37.7501 46.6059 38.7343 46.6059 39.3438 46L45.9688 39.375C46.5746 38.7655 46.5746 37.7813 45.9688 37.1719L43.0469 34.25C43.5488 33.2857 43.9721 32.2824 44.3125 31.25H48.4375C49.3005 31.25 50 30.5505 50 29.6875V20.3125C50 19.4495 49.3005 18.75 48.4375 18.75ZM46.875 28.125H43.1406C42.4098 28.1019 41.7605 28.5888 41.5781 29.2969C41.1793 30.8493 40.5639 32.3379 39.75 33.7188C39.3823 34.3328 39.4788 35.1183 39.9844 35.625L42.625 38.2656L38.2031 42.6875L35.5625 40.0469C35.0558 39.5413 34.2703 39.4448 33.6562 39.8125C32.2754 40.6264 30.7868 41.2418 29.2344 41.6406C28.5263 41.823 28.0394 42.4723 28.0625 43.2031V46.875H21.875V43.1406C21.8981 42.4098 21.4112 41.7605 20.7031 41.5781C19.1507 41.1793 17.6621 40.5639 16.2812 39.75C15.6672 39.3823 14.8817 39.4788 14.375 39.9844L11.7344 42.6719L7.32812 38.2656L9.96875 35.625C10.4743 35.1183 10.5708 34.3328 10.2031 33.7188C9.38926 32.3379 8.77383 30.8493 8.375 29.2969C8.19258 28.5888 7.54336 28.1019 6.8125 28.125H3.125V21.875H6.85938C7.59023 21.8981 8.23945 21.4112 8.42188 20.7031C8.8207 19.1507 9.43613 17.6621 10.25 16.2812C10.6177 15.6672 10.5212 14.8817 10.0156 14.375L7.32812 11.7344L11.7344 7.32812L14.3906 9.96875C14.8974 10.4743 15.6828 10.5708 16.2969 10.2031C17.6777 9.38926 19.1663 8.77383 20.7188 8.375C21.4269 8.19258 21.9138 7.54336 21.8906 6.8125V3.125H28.1406V6.85938C28.1175 7.59023 28.6044 8.23945 29.3125 8.42188C30.8649 8.8207 32.3535 9.43613 33.7344 10.25C34.3484 10.6177 35.1339 10.5212 35.6406 10.0156L38.2812 7.375L42.7031 11.7969L40.0312 14.3906C39.5257 14.8974 39.4292 15.6828 39.7969 16.2969C40.6107 17.6777 41.2262 19.1663 41.625 20.7188C41.8074 21.4269 42.4566 21.9138 43.1875 21.8906H46.875V28.125Z" fill="#F54343"/>
<path d="M25 15.625C19.8224 15.625 15.625 19.8224 15.625 25C15.625 30.1776 19.8224 34.375 25 34.375C30.1776 34.375 34.375 30.1776 34.375 25C34.375 19.8224 30.1776 15.625 25 15.625ZM25 31.25C21.5482 31.25 18.75 28.4518 18.75 25C18.75 21.5482 21.5482 18.75 25 18.75C28.4518 18.75 31.25 21.5482 31.25 25C31.25 28.4518 28.4518 31.25 25 31.25Z" fill="#F54343"/>
</svg>
