<svg width="70" height="62" viewBox="0 0 70 62" fill="none" xmlns="http://www.w3.org/2000/svg">
<path d="M20.1669 35.0198C16.4102 35.0198 13.3538 38.0762 13.3538 41.833C13.3538 45.5898 16.4102 48.6461 20.1669 48.6461C23.9237 48.6461 26.9801 45.5898 26.9801 41.833C26.9801 38.0762 23.9237 35.0198 20.1669 35.0198ZM20.1669 44.5582C18.6642 44.5582 17.4417 43.3357 17.4417 41.833C17.4417 40.3302 18.6642 39.1077 20.1669 39.1077C21.6697 39.1077 22.8922 40.3302 22.8922 41.833C22.8922 43.3357 21.6697 44.5582 20.1669 44.5582Z" fill="#F54343"/>
<path d="M66.3697 44.4766V34.8835C66.3697 29.2483 61.7851 24.6637 56.1499 24.6637H55.59V17.9871C55.59 17.7654 55.7774 17.578 55.9991 17.578H56.9582C58.0871 17.578 59.0022 16.6629 59.0022 15.5341C59.0022 14.4053 58.0871 13.4901 56.9582 13.4901H55.9991C53.5195 13.4901 51.5021 15.5075 51.5021 17.9871V24.6637H46.6807L40.3908 4.08791H43.5628C44.6916 4.08791 45.6068 3.17277 45.6068 2.04396C45.6068 0.915147 44.6916 0 43.5628 0H12.9701C11.8413 0 10.9262 0.915147 10.9262 2.04396V23.9113C4.44193 27.2683 0 34.0414 0 41.833C0 52.953 9.04696 62 20.167 62C28.5836 62 35.8112 56.8167 38.8288 49.4752H50.0549C49.847 50.2775 49.7363 51.1184 49.7363 51.9846C49.7363 57.5071 54.2292 62 59.7517 62C65.2741 62 69.767 57.5071 69.767 51.9846C69.767 48.9974 68.4509 46.3133 66.3697 44.4766ZM62.1829 33.7934H59.5473C58.4202 33.7934 57.5033 32.8765 57.5033 31.7495V28.904C59.8866 29.4432 61.7466 31.3734 62.1829 33.7934ZM42.406 24.6637H30.735C29.8844 24.1383 28.9924 23.6738 28.0646 23.2774C28.0667 23.2399 28.0703 23.2029 28.0703 23.1648V4.08791H36.1162L42.406 24.6637ZM15.0141 4.08791H23.9824V22.0296C22.7465 21.792 21.4712 21.6661 20.167 21.6661C18.3866 21.6661 16.6596 21.8991 15.0141 22.3343V4.08791ZM20.167 57.9121C11.301 57.9121 4.08791 50.699 4.08791 41.833C4.08791 32.967 11.301 25.7538 20.167 25.7538C29.033 25.7538 36.2462 32.967 36.2462 41.833C36.2462 50.699 29.033 57.9121 20.167 57.9121ZM40.0204 45.3873C40.2264 44.2331 40.3341 43.0454 40.3341 41.833C40.3341 36.8456 38.5133 32.276 35.5027 28.7516H53.4154V31.7495C53.4154 35.1306 56.1661 37.8813 59.5473 37.8813H62.2818V42.2937C61.4732 42.0825 60.6254 41.9692 59.7517 41.9692C56.7545 41.9692 54.0626 43.2943 52.2257 45.3873H40.0204ZM59.7517 57.9121C56.4832 57.9121 53.8242 55.253 53.8242 51.9846C53.8242 48.7162 56.4832 46.0571 59.7517 46.0571C63.0201 46.0571 65.6791 48.7162 65.6791 51.9846C65.6791 55.253 63.0201 57.9121 59.7517 57.9121Z" fill="#F54343"/>
</svg>
