<svg width="17" height="21" viewBox="0 0 17 21" fill="none" xmlns="http://www.w3.org/2000/svg">
<path d="M16.9091 8.45456C16.9091 15.0303 8.45456 20.6667 8.45456 20.6667C8.45456 20.6667 0 15.0303 0 8.45456C3.34127e-08 6.21227 0.890746 4.06182 2.47628 2.47628C4.06182 0.890746 6.21227 0 8.45456 0C10.6969 0 12.8473 0.890746 14.4328 2.47628C16.0184 4.06182 16.9091 6.21227 16.9091 8.45456Z" fill="white"/>
<path d="M8.45466 11.2726C10.0111 11.2726 11.2728 10.0109 11.2728 8.45442C11.2728 6.89798 10.0111 5.63623 8.45466 5.63623C6.89822 5.63623 5.63647 6.89798 5.63647 8.45442C5.63647 10.0109 6.89822 11.2726 8.45466 11.2726Z" fill="#202020"/>
</svg>
