<svg width="19" height="13" viewBox="0 0 19 13" fill="none" xmlns="http://www.w3.org/2000/svg">
<path d="M18.3213 11.2502V3.10735C18.3213 3.10735 10.088 8.85259 9.28727 9.15071C8.50012 8.86616 0.226074 3.10735 0.226074 3.10735V11.2502C0.226074 12.3812 0.465836 12.6074 1.58322 12.6074H16.9642C18.1082 12.6074 18.3213 12.4088 18.3213 11.2502ZM18.3082 1.5109C18.3082 0.687114 18.068 0.393066 16.9642 0.393066H1.58322C0.447741 0.393066 0.226074 0.745924 0.226074 1.56926L0.239646 1.69592C0.239646 1.69592 8.41372 7.32354 9.28727 7.63116C10.2101 7.27378 18.3213 1.56926 18.3213 1.56926L18.3082 1.5109Z" fill="white"/>
</svg>
