<svg width="19" height="13" viewBox="0 0 19 13" fill="none" xmlns="http://www.w3.org/2000/svg">
<path d="M18.3213 11.2497V3.10686C18.3213 3.10686 10.088 8.8521 9.28727 9.15022C8.50012 8.86567 0.226074 3.10686 0.226074 3.10686V11.2497C0.226074 12.3807 0.465836 12.6069 1.58322 12.6069H16.9642C18.1082 12.6069 18.3213 12.4083 18.3213 11.2497ZM18.3082 1.51041C18.3082 0.686626 18.068 0.392578 16.9642 0.392578H1.58322C0.447741 0.392578 0.226074 0.745435 0.226074 1.56877L0.239646 1.69544C0.239646 1.69544 8.41372 7.32305 9.28727 7.63067C10.2101 7.27329 18.3213 1.56877 18.3213 1.56877L18.3082 1.51041Z" fill="#212121"/>
<path d="M18.3082 1.51041C18.3082 0.686626 18.068 0.392578 16.9642 0.392578H1.58322C0.447741 0.392578 0.226074 0.745435 0.226074 1.56877L0.239646 1.69544C0.239646 1.69544 8.41372 7.32305 9.28727 7.63067C10.2101 7.27329 18.3213 1.56877 18.3213 1.56877L18.3082 1.51041Z" fill="#F54343"/>
</svg>
