<svg width="25" height="17" viewBox="0 0 25 17" fill="none" xmlns="http://www.w3.org/2000/svg">
<path d="M24.1071 14.7501V4.03578C24.1071 4.03578 13.2738 11.5953 12.2202 11.9876C11.1845 11.6132 0.297607 4.03578 0.297607 4.03578V14.7501C0.297607 16.2382 0.613084 16.5358 2.08332 16.5358H22.3214C23.8268 16.5358 24.1071 16.2745 24.1071 14.7501ZM24.0899 1.93519C24.0899 0.85126 23.7738 0.464355 22.3214 0.464355H2.08332C0.589274 0.464355 0.297607 0.928641 0.297607 2.01197L0.315465 2.17864C0.315465 2.17864 11.0708 9.5834 12.2202 9.98817C13.4345 9.51793 24.1071 2.01197 24.1071 2.01197L24.0899 1.93519Z" fill="black"/>
</svg>
