<svg xmlns="http://www.w3.org/2000/svg" viewBox="0 0 157.38 109.72"><defs><style>.cls-1{fill:#ef4445;}</style></defs><g id="Layer_2" data-name="Layer 2"><g id="Layer_2-2" data-name="Layer 2"><path class="cls-1" d="M103,47.56,77.79,58.08l-2.3-8.47-3-2.92-10.16.87-4.9-1.78V41.67s.21-3.12-3.55-3.12-3.42,2-3.42,2a5.1,5.1,0,0,0,.69,4.7,48.32,48.32,0,0,1,3,4.1l1.48,17.41,1.65.72,3.32.94L60.2,71.6l-2.55,3.12-2.56,2.75-16.39.78L34,71.43l-.82-2.59,18.33-.08L49.39,46.15l-.14,0c-.12-4.08-1.9-3.8-1.9-3.8l-12.53.26-5.37-1.31S25,28.69,42.44,30.52s28.66,2.2,28.66,2.2H83.87s13.16-1,16,2.18S103,47.56,103,47.56Z"/><path class="cls-1" d="M133.72,54.55A16.48,16.48,0,0,1,145.8,65.41a22.92,22.92,0,0,1,.27,10.89c-.64,3.65-1.4,7.43-3.28,10.67-1.62,2.78,2.7,5.3,4.32,2.52,2.18-3.75,3.16-8.09,3.86-12.33.74-4.43,1-9.09-.46-13.41a21.57,21.57,0,0,0-15.46-14c-3.14-.69-4.48,4.13-1.33,4.82Z"/><path class="cls-1" d="M135.69,41.24l1.56,1,.78.51a3.13,3.13,0,0,0,.8.49.66.66,0,0,0,.79-.47c.06-.22,0-.49.06-.69a1.78,1.78,0,0,1,.68-1.09.51.51,0,0,0-.1-.79,1.08,1.08,0,0,0-1.16.18,2.66,2.66,0,0,1-.77.39,2.3,2.3,0,0,1-1.69-.13.51.51,0,0,0-.68.18.51.51,0,0,0,.18.69,3.41,3.41,0,0,0,2.09.31,3.21,3.21,0,0,0,1-.31,3.74,3.74,0,0,0,.42-.27,1.64,1.64,0,0,1,.22-.14c.07,0,0,0-.07,0l-.1-.78a2.69,2.69,0,0,0-.8,1.11,2.18,2.18,0,0,0-.16.62c0,.11,0,.23,0,.35s0,.09,0,.14v0a.25.25,0,0,1,.06-.16l.22-.13c.18,0,.23,0,.14,0l-.1-.06-.17-.11-.37-.25-.75-.49-1.49-1a.5.5,0,0,0-.5.87Z"/><path class="cls-1" d="M134.56,74a1,1,0,0,0,0-2,1,1,0,0,0,0,2Z"/></g><g id="Layer_1-2" data-name="Layer 1"><path d="M28.85,53.52a6.71,6.71,0,0,1-1.38-1.39,5.07,5.07,0,0,1-.25-1.83c1.71-.17,1.07-1.41,1.12-2.48-1.32-.53-2.86-.8-3.93-1.65-1.55-1.24-1.53-3.27-1-5,.35-1.09,1.53-1.91,2.34-2.85l.53.38c.2-.83.37-1.67.62-2.48,1.43-4.61,5.13-7.36,10.4-7.24,4.88.1,9.75.62,14.72,1V9.61l2.5-.23V0h2.11V9.43l2.5.63V30.34c2.67.2,5,.4,7.38.54,9.9.56,19.81,1,29.7,1.75,1.75.14,3.41,1.48,5.27,2.34,2.53-1.6,2.69-1.59,5,.33,2.17-2.43,2.1-2.6.3-5.2a25.54,25.54,0,0,1-3-5.33c-1.53-4,.76-7.52,5-7.26,5.42.33,10.14,2.42,12.92,7.52a8.92,8.92,0,0,1,1,7.48,14.61,14.61,0,0,1,9.56,4.55l-4.58.41,0,.46a10.59,10.59,0,0,0,1.26,0c3.83-.53,7.49-.22,10.85,2,.94.6,2,1,3,1.51,1.55.87,3.52,1.27,3.56,3.73,0,.61.9,1.26,1.49,1.79,1.41,1.26,2.43,2.6,1.3,4.47.15.24.19.4.29.45,3.75,2.06,3.83,2.27,2,6.09-.56,1.15.52,4.75,1.68,5.19,1.5.56,1.35,1.63.73,2.5-1.54,2.14-.66,4.49-.79,6.74,0,.36.73.8,1.17,1.14a1.45,1.45,0,0,1,.07,2.51c-1.64,1-2.17,3.71-1.29,5.63a27.67,27.67,0,0,1,1.1,3.83c-2.49-.56-3.2,1-3.35,2.3s.61,2.6.94,3.8L146.65,97a15.15,15.15,0,0,0,2.86.84c1.52.08,3.05-.14,4.56,0a8.3,8.3,0,0,1,3.31,1.15,13.89,13.89,0,0,1-9,3.22c-11.7.25-23.41.29-35.12.44-8.87.11-17.74.2-26.6.46a6.15,6.15,0,0,0-3.81,1.56,17,17,0,0,1-16.17,4.67c-6.52-1.28-13.06-2.6-19.65-3.33-4.16-.46-8.44.17-12.67.27-4.69.11-9.39.31-14.08.23-5.48-.09-11-.41-16.43-.7a10.36,10.36,0,0,1-3.87-1l17.92-4.11c-.79-2.66-1.75-5.44-2.41-8.28-1.58-6.86-1.63-13.65,1.69-20.1a14.65,14.65,0,0,1,7.53-7,24.94,24.94,0,0,1,4.32-.92c.08-.44.58-1.28-.89-1.83-.32-.11-.5-1.86-.12-2.35,1-1.25,1.05-2.25-.15-3.12a1.68,1.68,0,0,1-.63-1.39C27.46,55,28.06,54.51,28.85,53.52Zm93.78-12.74-2.43-.62c-.22.36-.9,1.23-.8,1.34A22.62,22.62,0,0,0,122,43.57l-1.92.82-.83-1.11c-.47.53-.86,1-1.26,1.42L116.77,46l-1-1.52c-1.76,1-1.74,1.06.63,5.47h2.41l0,.38-2.91,1.73-1.4-2.21L113,51.73l-1.82-.86c-1.15,3.61,1,6.1,1.93,8.56l2.49-.29c-.73,1-1.47,2-2.32,3.15l-1.78-3.61a7.34,7.34,0,0,1-2.1.88c-1.53.06-1.93.87-1.38,2.07,1.31,2.82,2.76,5.58,4.16,8.36l.47-.52,2.56-.49.19.57-3.61,4.89c.89-2.91-1.15-4.38-2.71-6.17l-2.36,1.18c.55,5.1,3.62,8.59,7,12.26l-.6,1.35c-4.41-4.31-4.41-4.31-5.73-3.56l7.3,10.22.56-.38a11.86,11.86,0,0,1-1-1.87,2.65,2.65,0,0,1-.16-1.77c1.27-2.31,2.6-4.6,4.06-6.8,1.15-1.74,2.89-2.36,5.33-2a51.34,51.34,0,0,1-2,6.85,51.52,51.52,0,0,1-3.76,6.13l1.7,1.37,4.15-5c1.8,1.12,2.56,2.33,1.33,4.28-.7,1.1-1,2.45-1.6,3.61-.79,1.45-.17,2.12,1.16,2.67l2.86-4.42c1.59.38,1.72,1.32,1.41,2.49a12.36,12.36,0,0,0-.6,2.49,17.55,17.55,0,0,0,.42,3l3.95-3.25c3.32,3.73,3.93,3.84,8.33,1.45A6.93,6.93,0,0,0,143,97.11a33.66,33.66,0,0,0,3.52-4.72c.33-.55-.13-1.57-.23-2.37a11.22,11.22,0,0,0-1.74.85A44.4,44.4,0,0,1,140.22,94a4.46,4.46,0,0,1-6.33-2.82c5.82,1,7.69.68,11.25-6.3,3-5.92,3.14-12.19,1.77-18.56-.74-3.44-1.8-6.73-4.15-9.51-2.57-3-9.63-3.89-12,1.11-.67,1.43-1.41,2.83-2,4.3-.7,1.85-1.24,3.76-1.9,5.79a4,4,0,0,1-.47-.63,4.59,4.59,0,0,1-.39-1.11c-1-6.13,1.3-11.19,5.42-15.45,3.2-3.31,9-2.6,11.62,1.19,1.09,1.57,2,3.26,3.15,4.81.4.55,2.26-.28,2.14-1-.79-4.17-3.44-7.24-6.27-10.13-1.52-1.55-3.76-2.58-4.79-4.36-1.16-2-2.72-2.16-4.5-2.42a23.55,23.55,0,0,0-2.35-.29c-2.89-.13-5.77-.22-7.94,2.22ZM34.75,69.56c-.19,2.51,1.73,3.55,2.77,5.06a2.46,2.46,0,0,0,1.77.87c5.16.07,10.32.06,15.49,0a2.12,2.12,0,0,0,1.43-.65c1.39-1.72,2.69-3.5,4.09-5.35H55.48c-.14-.58-.3-1-.36-1.48-.58-5.19-1.1-10.39-1.74-15.58-.21-1.64-.2-3.81-1.2-4.73-2.23-2-2.61-4.38-2.3-7A3.35,3.35,0,0,1,54.61,38c2.38.9,4,2.45,4.07,5.48H77.94c.76,2.34,1.9,4.42,2,6.57a109.81,109.81,0,0,1-.1,13.33c-.16,2.72,1.31,4.51,2.48,6.62,1.54-1,2.91-2,4.29-2.85C90,65,90,65,89.2,61.28a.36.36,0,0,1,.09-.24h5.64a16,16,0,0,0,.63,3.31c.73,1.63,1.19,3.6,3.36,4,3,.61,5-.39,6-3.38,1.1-3.25.57-6.51-.55-9.7a5.35,5.35,0,0,0-5-3.65c-1.31-.13-2.64,0-4,0-3.08-.06-4.85,1.58-5.89,4.34a2,2,0,0,1-1.41,1.13c-2.42,0-4.84-.29-7.41-.48.09-.93.17-1.71.22-2.49.33-4.7.78-9.38.95-14.08.17-4.54-1.84-6.53-6.46-6.81-4.81-.3-9.63-.63-14.45-.86-8-.4-16-.78-24-1.06a5.17,5.17,0,0,0-5.16,5.88,4.78,4.78,0,0,0,4,4.15c3.17.43,6.34.8,9.51,1.2l0,.11H34.45v2.14l12.09.63v2.18H34.31l.2,2.24h12v2.5H34.32l.31,2.31H46.71l-.18,2.46h-12l.16,2.94H46.89v2.44H35c-.55,1.42-.31,2,1,2,3.61,0,7.23,0,10.86,0v2.8H44.39c-2.84,0-5.69-.06-8.53,0-.37,0-.74.34-1.1.52.3.24.6.7.9.7,5.08,0,10.16,0,15.28,0a5.09,5.09,0,0,0,0-.78q-1-10-2-20c-.11-1.12-.25-2.23-.37-3.35-.27-2.49-2.35-2.6-4.32-3,1.14-1.34,2.39-1.34,3.14-.24a12.34,12.34,0,0,1,2.26,4.88c.16,1.19.31,2.37.44,3.56.5,4.46.85,9,1.34,13.42.23,2.13.69,4.24,1.08,6.49H34.75ZM60.62,90.3l1-.15a17.73,17.73,0,0,1,.54,2.35,31.43,31.43,0,0,0,3.67,12.44c1.65,3,5.5,5,9.28,2.55S81.66,102.11,83,98a35,35,0,0,0,.92-19.55C82.81,74,81,69.9,76.43,68c-8.37-3.47-17.54,3.42-18.63,11.84a71.77,71.77,0,0,0-.48,7.33,33.93,33.93,0,0,0,2.78,15.65,11.68,11.68,0,0,0,.93,1.49c-.87-4.57-2-9.12-2.57-13.73a25.21,25.21,0,0,1,4.13-17.93,10.48,10.48,0,0,1,9.48-4.62,2.15,2.15,0,0,1-1,.49c-5.29,1.15-8.42,4.58-10.16,9.54-2,5.7-1.57,11.47-.48,17.23a50.07,50.07,0,0,0,1.86,5.88l.28-.12Zm22-44.52H102c-.22-2.08-.51-3.82-.56-5.58-.06-2.14-1.21-3.3-2.87-4.49s-3.57-1.2-5.44-1.34c-4-.31-8-.53-12.16-.81C84.21,37.53,82.3,41.85,82.59,45.78ZM26.15,90.5c1.37,1.83,2.49,4.19,5.18,3.61,1.72-.37,2.54-2,3.08-3.88-3,1.4-4.5.91-5.1-1.66a8.24,8.24,0,0,1,0-3.53c.42-1.86,3.91-2.94,4.79-1.45,1.33,2.24,3.49,1.92,5.52,2.76l.32-2.58c-3.5,1-3.24-1.63-3.75-3.35-2.94-.94-7.11.56-7.65-4.71-1.59,1.58-3.3,3-4,4.74a18.3,18.3,0,0,0,1.14,15.49c1.88,3.44,5.84,4.2,8.55,1.76a19.25,19.25,0,0,0,2.95-3.89c1.1-1.68.45-2.89-1.2-3.76-2.11,4.76-4,6.38-6.64,5.75C27.38,95.32,26,93.11,26.15,90.5ZM57,102.79c-.73-3.07-1.34-5.82-2.07-8.55a1.71,1.71,0,0,0-1.14-1.07c-3.61-.08-7.22,0-10.79,0l-3.33,8.24Zm56.37-4.56a5.89,5.89,0,0,0,.2-.66c.5-2.79-1.92-4.16-3-6.22-.4-.8-.41-1.78-.74-2.63s-.75-2.22-1.19-2.24c-1.19-.06-2.8-1.11-3.63.78-1.51,3.44-3,6.87-4.57,10.34ZM27.88,68.45l-.8-.69c-1.69,1.39-3.73,2.52-5,4.21-5.19,6.85-4.6,14.64-3.18,22.54a4.36,4.36,0,0,1-.79-2c-.32-3.74-1-7.51-.77-11.23.36-6.32,3.05-11.41,9.16-14.15A5.23,5.23,0,0,0,27.74,66c-.52-.33-.71-.31-.88-.23-6,2.75-9.72,7.23-10.5,14A30.13,30.13,0,0,0,20.45,99a3.66,3.66,0,0,0,.73-2.26c-.33-2.87-.79-5.74-1.23-8.6-1.08-7.08,1-12.9,6.63-17.44A7.78,7.78,0,0,0,27.88,68.45ZM64.2,57.59l-.39.61c.74,1.12,1.37,3.12,2.24,3.23a76.08,76.08,0,0,0,9.44.15V58.11a53.19,53.19,0,0,0-5.62-.84A53.88,53.88,0,0,0,64.2,57.59ZM57.44,11.2H53.89c.58,5.69,1.14,11.21,1.7,16.72h.83C56.75,22.39,57.09,16.87,57.44,11.2Zm53.07,23-4.85,10.4c1.89.65,2.76.15,3.51-1.39a17.91,17.91,0,0,1,3-4.11,24.38,24.38,0,0,1,3.08-2.5Zm-3.4-13.92,3.48,3.21a6.16,6.16,0,0,0,7.9.59C115.82,20.82,110.13,18.87,107.11,20.31Zm11.57,13.36c2.83-1,3.33-5.37.91-8.42-.75.45-1.53.9-2.29,1.38-1.72,1.06-2,1.89-.9,3.65C117.11,31.45,117.92,32.56,118.68,33.67ZM101.33,74.34l-.37-.75-15.3,5.6c.56.23,1.18.75,1.67.64a46.33,46.33,0,0,0,7.41-1.92A58.4,58.4,0,0,0,101.33,74.34ZM72.5,49.63c-3.77,0-7.33-.07-10.87.06-.77,0-1.52.77-2.28,1.19l.17.54H72.4Zm38.11-22.28.58-.91c-1.48-2-3.42-3.58-5.18-5.5-1.19,2.16-1.05,4.31.35,5.71C107.18,27.47,109.15,27.15,110.61,27.35ZM52.12,88.55c.8-.48,1.91-.79,2-1.25.29-2.16.3-4.35.42-6.56H51.86c0,2.15,0,4.18,0,6.21A12.37,12.37,0,0,0,52.12,88.55Zm2.06-46.06.46-.34c-.77-1-1.46-2.76-2.31-2.84-1.82-.16-1.7,1.72-1.85,3.07a.31.31,0,0,0,0,.19c.58,1,1.17,2,1.76,3l1.92-2.86S54.18,42.55,54.18,42.49ZM55.3,58.23c.32,3.55,1,4.88,2.16,4.71.93-.13,2.21-2.22,1.87-3.53C58.63,56.7,56.6,59.13,55.3,58.23ZM117.14,34.9l.29-.74c-.6-.76-1.18-1.53-1.8-2.28-1.71-2.05-2.66-1.87-4,1.18ZM27.11,43l-1.47-2.87c-.53.89-1.49,1.79-1.47,2.67s1.07,1.65,1.66,2.47Zm28.3,2,.27.47a11.4,11.4,0,0,0,1.25-2.89,3,3,0,0,0-1.84-3.41C55.19,41.07,55.3,43,55.41,45Z"/></g></g></svg>