<svg xmlns="http://www.w3.org/2000/svg" viewBox="0 0 66.07 55.62"><defs><style>.cls-1{fill:#f54343;}</style></defs><g id="Layer_2" data-name="Layer 2"><g id="Layer_1-2" data-name="Layer 1"><path class="cls-1" d="M22.28,55.62a7.45,7.45,0,1,1,7.46-7.45A7.46,7.46,0,0,1,22.28,55.62Z"/><path class="cls-1" d="M55.73,55.62a7.45,7.45,0,1,1,7.45-7.45A7.46,7.46,0,0,1,55.73,55.62Z"/><path class="cls-1" d="M55.73,49.31H23.94a2.8,2.8,0,0,1-2.26-1.14,2.84,2.84,0,0,1-.41-2.52l4.27-10.49a1.15,1.15,0,1,1,2.13.87L23.43,46.44a.54.54,0,0,0,.1.37.52.52,0,0,0,.41.21H55.73a1.15,1.15,0,1,1,0,2.29Z"/><path class="cls-1" d="M65.53,7.56a2.8,2.8,0,0,0-2.26-1.15l-47.87,0L13.15,1.27A1.15,1.15,0,0,0,12.1.59H1.46a1.15,1.15,0,1,0,0,2.29h9.89l14,32.17A2.82,2.82,0,0,0,28,36.75H55.47a2.79,2.79,0,0,0,2.67-2L66,10.06A2.83,2.83,0,0,0,65.53,7.56ZM53.12,30.1H29.64a1.15,1.15,0,1,1,0-2.3H53.12a1.15,1.15,0,1,1,0,2.3Zm2-7.25H27.63a1.15,1.15,0,1,1,0-2.3h27.5a1.15,1.15,0,0,1,0,2.3Zm1.64-7.26H26a1.15,1.15,0,1,1,0-2.29H56.77a1.15,1.15,0,1,1,0,2.29Z"/><path class="cls-1" d="M3.62,1.81A1.81,1.81,0,1,1,1.81,0,1.81,1.81,0,0,1,3.62,1.81Z"/></g></g></svg>