<svg xmlns="http://www.w3.org/2000/svg" viewBox="0 0 57.07 65"><defs><style>.cls-1{fill:#f54343;}</style></defs><g id="Layer_2" data-name="Layer 2"><g id="Layer_1-2" data-name="Layer 1"><path class="cls-1" d="M56.86,50.14l-2.68-8.06a16,16,0,0,0-5.62-7.76l-8.9-6.25a16.19,16.19,0,0,0,5.12-11.82,16.9,16.9,0,0,0-.25-2.78c4.26-3.16,2.46-11,2.22-11.93L46.37,0H24.47c-5.3,0-9.7,2.38-11.23,6.05A6.6,6.6,0,0,0,13.17,11,16.14,16.14,0,0,0,17.4,28.07L8.45,34.36a16,16,0,0,0-5.57,7.72L.24,50A3.54,3.54,0,0,0,.7,53.4c1.64,2.41,6.51,4.44,9.58,5.19a1.66,1.66,0,0,0,0,.32c0,3.55,5,4.66,6.67,5A56.68,56.68,0,0,0,28.53,65c6.83,0,18.28-.79,18.28-6.09a1.66,1.66,0,0,0,0-.32c3.08-.75,7.95-2.78,9.58-5.19A3.46,3.46,0,0,0,56.86,50.14ZM40.3,33.48,35,37.73,30.92,32.3a15.94,15.94,0,0,0,5.26-1.71ZM43.1,4.06c.32,2.31.33,5.52-1.09,6.26-.58.08-2.31-.77-3.59-1.36-2.76-1.28-6.2-2.87-9.89-2.87-4.17,0-9.07,2.19-11.57,3.46a2.51,2.51,0,0,1,0-1.94c.73-1.77,3.32-3.55,7.47-3.55ZM16.34,16.25a11.68,11.68,0,0,1,.15-1.79l.88-.52c1.79-1,7.29-3.78,11.16-3.78,2.8,0,5.66,1.32,8.18,2.49a24.66,24.66,0,0,0,3.82,1.53,11.72,11.72,0,0,1,.19,2.07,12.19,12.19,0,1,1-24.38,0Zm9.8,16-3.92,5.23L17.59,32.9l3.29-2.31A15.94,15.94,0,0,0,26.14,32.3ZM14.39,58.74l1.91-9.59a2,2,0,0,0-4-.8l-1.25,6.27C8.8,54,4.91,52.33,4.12,51.22l2.62-7.85a11.83,11.83,0,0,1,4.1-5.73l3.37-2.37L21,42.06a2,2,0,0,0,1.58.59A2,2,0,0,0,23.84,42l2.66,2.66L22.44,54.84,27,60.91C19.63,60.75,15.37,59.53,14.39,58.74ZM46,54.62l-1.26-6.27a2,2,0,1,0-4,.8l1.92,9.59c-1,.79-5.25,2-12.6,2.17l4.55-6.07L30.56,44.69,33.22,42a2,2,0,0,0,1.15.61l.26,0a2,2,0,0,0,1.26-.45l7.87-6.3,2.41,1.7a11.76,11.76,0,0,1,4.15,5.76l2.62,7.84C52.16,52.32,48.26,54,46,54.62Z"/></g></g></svg>