<svg xmlns="http://www.w3.org/2000/svg" viewBox="0 0 90 50"><defs><style>.cls-1{fill:#f54343;}</style></defs><g id="Layer_2" data-name="Layer 2"><g id="Layer_1-2" data-name="Layer 1"><path class="cls-1" d="M78.61,11.47a1.7,1.7,0,0,0-1.4-.72H58.33V0H0V43.38H6.75A8.49,8.49,0,0,0,15.11,50a8.49,8.49,0,0,0,8.36-6.62H30c1.7-1.44.66-3.27-.81-3.27h-5.7a8.48,8.48,0,0,0-8.36-6.62,8.48,8.48,0,0,0-8.36,6.62H3.38V3.28H55V40.11H34.38c-1.7,1.44-.67,3.27.81,3.27h25a8.58,8.58,0,0,0,16.71,0H90v-15a1.59,1.59,0,0,0-.29-.92ZM12.08,37.62c5-2.92,10.31,2.19,7.28,7.07a3.48,3.48,0,0,1-1.21,1.17c-5,2.94-10.32-2.18-7.29-7.06A3.54,3.54,0,0,1,12.08,37.62Zm59.46,8.25c-5,2.92-10.3-2.19-7.28-7.07a3.48,3.48,0,0,1,1.21-1.17c5-2.94,10.33,2.18,7.29,7.07A3.51,3.51,0,0,1,71.54,45.87Zm15.08-5.76H76.87a8.58,8.58,0,0,0-16.71,0H58.33V14h18L86.62,28.87Z"/><path class="cls-1" d="M48.49,14.85H9.61a2.19,2.19,0,1,0,0,4.38H48.49a2.19,2.19,0,1,0,0-4.38Z"/><path class="cls-1" d="M64.79,25.69V20.11h8.28L77,25.69Z"/><path class="cls-1" d="M48.34,22.81H9.46a2.19,2.19,0,1,0,0,4.38H48.34a2.19,2.19,0,1,0,0-4.38Z"/></g></g></svg>