<svg width="30" height="30" viewBox="0 0 30 30" fill="none" xmlns="http://www.w3.org/2000/svg">
<rect x="0.5" y="0.5" width="29" height="29" rx="3.5" fill="white" stroke="#F54343"/>
<path d="M8.66572 17.6572L7.85143 21.1715C7.82334 21.2999 7.8243 21.433 7.85425 21.5611C7.8842 21.6891 7.94237 21.8089 8.02452 21.9116C8.10666 22.0142 8.21071 22.0973 8.32906 22.1546C8.44741 22.2119 8.57708 22.2421 8.70858 22.2429C8.76985 22.2491 8.83159 22.2491 8.89286 22.2429L12.4286 21.4286L19.2171 14.6657L15.4286 10.8857L8.66572 17.6572Z" fill="#F54343"/>
<path d="M21.3515 11.28L18.8229 8.75142C18.6567 8.58601 18.4317 8.49316 18.1972 8.49316C17.9627 8.49316 17.7377 8.58601 17.5715 8.75142L16.1658 10.1571L19.9501 13.9414L21.3558 12.5357C21.438 12.453 21.5032 12.3549 21.5475 12.247C21.5918 12.1392 21.6144 12.0236 21.614 11.907C21.6136 11.7903 21.5902 11.6749 21.5452 11.5673C21.5001 11.4597 21.4343 11.3621 21.3515 11.28V11.28Z" fill="#F54343"/>
</svg>
