<svg width="211" height="54" viewBox="0 0 211 54" fill="none" xmlns="http://www.w3.org/2000/svg">
<rect x="0.25" y="0.25" width="210.5" height="53.5" rx="8.75" fill="white" stroke="#BCBCBC" stroke-width="0.5"/>
<path d="M73.44 35V20.72H82.5V21.88H74.8V27.04H81.64V28.2H74.8V35H73.44ZM83.9622 35V24.68H85.2222V35H83.9622ZM83.9622 22.74V20.72H85.2222V22.74H83.9622ZM95.0736 25.58L88.2536 33.94H95.3536V35H86.7336V33.98L93.4736 25.74H87.1936V24.68H95.0736V25.58ZM96.9114 35V24.68H98.1714V35H96.9114ZM96.9114 22.74V20.72H98.1714V22.74H96.9114ZM109.123 27.92H107.863C107.503 26.2667 106.529 25.44 104.943 25.44C103.796 25.44 102.889 25.9 102.223 26.82C101.623 27.6467 101.323 28.6533 101.323 29.84C101.323 31.0267 101.623 32.0333 102.223 32.86C102.889 33.78 103.796 34.24 104.943 34.24C105.729 34.24 106.403 33.9667 106.963 33.42C107.536 32.86 107.863 32.1533 107.943 31.3H109.203C109.029 32.54 108.563 33.52 107.803 34.24C107.043 34.9467 106.089 35.3 104.943 35.3C103.423 35.3 102.216 34.76 101.323 33.68C100.483 32.6667 100.063 31.3867 100.063 29.84C100.063 28.2933 100.483 27.0133 101.323 26C102.216 24.92 103.423 24.38 104.943 24.38C106.076 24.38 107.016 24.6733 107.763 25.26C108.536 25.8867 108.989 26.7733 109.123 27.92ZM110.954 35V20.72H112.214V29.68L117.934 24.68H119.614L115.214 28.5L119.914 35H118.334L114.254 29.38L112.214 31.08V35H110.954ZM125.314 24.38C126.834 24.38 128.041 24.92 128.934 26C129.774 27.0133 130.194 28.2933 130.194 29.84C130.194 31.3867 129.774 32.6667 128.934 33.68C128.041 34.76 126.834 35.3 125.314 35.3C123.794 35.3 122.587 34.76 121.694 33.68C120.854 32.6667 120.434 31.3867 120.434 29.84C120.434 28.2933 120.854 27.0133 121.694 26C122.587 24.92 123.794 24.38 125.314 24.38ZM125.314 25.44C124.167 25.44 123.261 25.9 122.594 26.82C121.994 27.6467 121.694 28.6533 121.694 29.84C121.694 31.0267 121.994 32.0333 122.594 32.86C123.261 33.78 124.167 34.24 125.314 34.24C126.461 34.24 127.367 33.78 128.034 32.86C128.634 32.0333 128.934 31.0267 128.934 29.84C128.934 28.6533 128.634 27.6467 128.034 26.82C127.367 25.9 126.461 25.44 125.314 25.44ZM137.874 35V20.72H139.234V33.84H147.234V35H137.874ZM148.396 35V24.68H149.656V35H148.396ZM148.396 22.74V20.72H149.656V22.74H148.396ZM160.607 27.92H159.347C158.987 26.2667 158.014 25.44 156.427 25.44C155.281 25.44 154.374 25.9 153.707 26.82C153.107 27.6467 152.807 28.6533 152.807 29.84C152.807 31.0267 153.107 32.0333 153.707 32.86C154.374 33.78 155.281 34.24 156.427 34.24C157.214 34.24 157.887 33.9667 158.447 33.42C159.021 32.86 159.347 32.1533 159.427 31.3H160.687C160.514 32.54 160.047 33.52 159.287 34.24C158.527 34.9467 157.574 35.3 156.427 35.3C154.907 35.3 153.701 34.76 152.807 33.68C151.967 32.6667 151.547 31.3867 151.547 29.84C151.547 28.2933 151.967 27.0133 152.807 26C153.701 24.92 154.907 24.38 156.427 24.38C157.561 24.38 158.501 24.6733 159.247 25.26C160.021 25.8867 160.474 26.7733 160.607 27.92ZM171.118 30.18H163.178C163.192 31.2467 163.458 32.1533 163.978 32.9C164.605 33.7933 165.472 34.24 166.578 34.24C168.285 34.24 169.365 33.36 169.818 31.6H171.078C170.505 34.0667 169.005 35.3 166.578 35.3C165.032 35.3 163.845 34.76 163.018 33.68C162.285 32.7067 161.918 31.4267 161.918 29.84C161.918 28.3333 162.285 27.08 163.018 26.08C163.858 24.9467 165.045 24.38 166.578 24.38C168.138 24.38 169.325 24.9867 170.138 26.2C170.845 27.2533 171.172 28.58 171.118 30.18ZM163.178 29.12H169.858C169.832 28.1067 169.532 27.2533 168.958 26.56C168.345 25.8133 167.552 25.44 166.578 25.44C165.605 25.44 164.805 25.82 164.178 26.58C163.618 27.2467 163.285 28.0933 163.178 29.12Z" fill="#212121"/>
<path d="M56 7V47" stroke="#BCBCBC" stroke-width="0.5"/>
<path d="M36 36V34C36 32.9391 35.5786 31.9217 34.8284 31.1716C34.0783 30.4214 33.0609 30 32 30H24C22.9391 30 21.9217 30.4214 21.1716 31.1716C20.4214 31.9217 20 32.9391 20 34V36" stroke="#212121" stroke-width="2" stroke-linecap="round" stroke-linejoin="round"/>
<path d="M28 26C30.2091 26 32 24.2091 32 22C32 19.7909 30.2091 18 28 18C25.7909 18 24 19.7909 24 22C24 24.2091 25.7909 26 28 26Z" stroke="#F54343" stroke-width="2" stroke-linecap="round" stroke-linejoin="round"/>
</svg>
