<svg xmlns="http://www.w3.org/2000/svg" viewBox="0 0 211 54"><defs><style>.cls-1{fill:#f54343;}.cls-2{fill:#fff;}.cls-3,.cls-4{fill:none;stroke:#fff;}.cls-3{stroke-width:0.5px;}.cls-4{stroke-linecap:round;stroke-linejoin:round;stroke-width:2px;}</style></defs><g id="Layer_2" data-name="Layer 2"><g id="Layer_1-2" data-name="Layer 1"><rect class="cls-1" width="211" height="54" rx="9"/><path class="cls-2" d="M73.52,34V19.72h9.86v2.16H76v3.74h6.46v2H76V34Zm11.6,0V23.66H87.4V34Zm0-12.12V19.72H87.4v2.16Zm4.4,3.58v-1.8h8.4v1.6L92,32.2h6.22V34h-9.1V32.4l5.72-6.94ZM99.94,34V23.66h2.28V34Zm0-12.12V19.72h2.28v2.16Zm14,5.24h-2.28a2.09,2.09,0,0,0-2.36-1.94,2.54,2.54,0,0,0-1.86.7,4.15,4.15,0,0,0-1,3.06,4.41,4.41,0,0,0,.62,2.42,2.39,2.39,0,0,0,2.12,1.12,2.26,2.26,0,0,0,1.64-.62,2.91,2.91,0,0,0,.82-1.74H114q-.66,4.15-4.74,4.16a4.71,4.71,0,0,1-3.72-1.54,5.49,5.49,0,0,1-1.3-3.8,5.91,5.91,0,0,1,1.28-4,4.73,4.73,0,0,1,3.82-1.6,5.13,5.13,0,0,1,3.14.92A3.71,3.71,0,0,1,114,27.12ZM115.88,34V19.72h2.28v8.12l4.12-4.18h2.8l-4,3.8L125.46,34h-2.78l-3.16-5-1.36,1.32V34Zm15.42-1.52a2.57,2.57,0,0,0,2.24-1.16,4.24,4.24,0,0,0,.7-2.5,4.2,4.2,0,0,0-.7-2.48,2.74,2.74,0,0,0-4.48,0,4.2,4.2,0,0,0-.7,2.48,4.24,4.24,0,0,0,.7,2.5A2.57,2.57,0,0,0,131.3,32.48Zm0,1.8a5,5,0,0,1-3.86-1.54,5.55,5.55,0,0,1-1.36-3.92,5.57,5.57,0,0,1,1.38-3.92,5.61,5.61,0,0,1,7.7,0,5.53,5.53,0,0,1,1.36,3.9,5.55,5.55,0,0,1-1.36,3.92A5,5,0,0,1,131.3,34.28Zm13-.28V19.72h2.5V31.84h7.26V34Zm11.23,0V23.66h2.28V34Zm0-12.12V19.72h2.28v2.16Zm14,5.24h-2.28a2.1,2.1,0,0,0-2.36-1.94,2.54,2.54,0,0,0-1.86.7,4.15,4.15,0,0,0-1,3.06,4.41,4.41,0,0,0,.62,2.42,2.38,2.38,0,0,0,2.12,1.12,2.27,2.27,0,0,0,1.64-.62,3,3,0,0,0,.82-1.74h2.28q-.66,4.15-4.74,4.16a4.71,4.71,0,0,1-3.72-1.54,5.44,5.44,0,0,1-1.3-3.8,5.91,5.91,0,0,1,1.28-4,4.73,4.73,0,0,1,3.82-1.6,5.15,5.15,0,0,1,3.14.92A3.74,3.74,0,0,1,169.55,27.12Zm11.23,2.3h-7.6a3.3,3.3,0,0,0,.68,2.14,2.57,2.57,0,0,0,2.1.92,2.42,2.42,0,0,0,2.52-1.72h2.16a4.17,4.17,0,0,1-1.66,2.6,5.05,5.05,0,0,1-3,.92,4.75,4.75,0,0,1-3.72-1.5,5.7,5.7,0,0,1-1.34-3.94A5.7,5.7,0,0,1,172.24,25a4.65,4.65,0,0,1,3.66-1.62,4.52,4.52,0,0,1,3.58,1.6,5.3,5.3,0,0,1,1.34,3.68A6.45,6.45,0,0,1,180.78,29.42Zm-7.6-1.5h5.32a3,3,0,0,0-.78-1.94,2.3,2.3,0,0,0-1.82-.8A2.58,2.58,0,0,0,174,26,2.88,2.88,0,0,0,173.18,27.92Z"/><path class="cls-3" d="M56,7V47"/><path class="cls-4" d="M36,36V34a4,4,0,0,0-4-4H24a4,4,0,0,0-4,4v2"/><path class="cls-4" d="M28,26a4,4,0,1,0-4-4A4,4,0,0,0,28,26Z"/></g></g></svg>