<svg width="211" height="54" viewBox="0 0 211 54" fill="none" xmlns="http://www.w3.org/2000/svg">
<rect x="0.25" y="0.25" width="210.5" height="53.5" rx="8.75" fill="white" stroke="#BCBCBC" stroke-width="0.5"/>
<path d="M73.44 35V20.72H79.78C81.0733 20.72 82.1 21.08 82.86 21.8C83.6333 22.52 84.02 23.52 84.02 24.8C84.02 26.08 83.6333 27.08 82.86 27.8C82.1 28.52 81.0733 28.88 79.78 28.88H74.8V35H73.44ZM74.8 21.88V27.72H79.48C80.4533 27.72 81.2267 27.4733 81.8 26.98C82.3733 26.4733 82.66 25.7467 82.66 24.8C82.66 23.8533 82.3667 23.12 81.78 22.6C81.22 22.12 80.4533 21.88 79.48 21.88H74.8ZM85.7977 35V24.68H86.9577V27.1H86.9977C87.3177 26.26 87.8177 25.6133 88.4977 25.16C89.1777 24.7067 89.9777 24.5 90.8977 24.54V25.8C89.7777 25.7467 88.8577 26.08 88.1377 26.8C87.4177 27.5067 87.0577 28.4067 87.0577 29.5V35H85.7977ZM98.7063 31V29.36H98.6663C98.5596 29.56 98.2063 29.7133 97.6063 29.82C96.8729 29.9267 96.1396 30.04 95.4063 30.16C94.5796 30.3067 93.9663 30.5067 93.5663 30.76C93.0596 31.1067 92.8063 31.5867 92.8063 32.2C92.8063 32.8 93.0329 33.2933 93.4863 33.68C93.9529 34.0533 94.4929 34.24 95.1063 34.24C96.1063 34.24 96.9529 33.9467 97.6463 33.36C98.3529 32.76 98.7063 31.9733 98.7063 31ZM93.2463 27.84H91.9863C92.0396 26.68 92.4596 25.8 93.2463 25.2C93.9529 24.6533 94.9263 24.38 96.1663 24.38C98.6996 24.38 99.9663 25.4867 99.9663 27.7V33.18C99.9663 33.6867 100.213 33.94 100.706 33.94C100.84 33.94 100.973 33.9133 101.106 33.86V34.92C100.853 34.9733 100.58 35 100.286 35C99.6863 35 99.2796 34.8333 99.0663 34.5C98.8929 34.2333 98.8063 33.8 98.8063 33.2H98.7663C98.2863 33.9333 97.7996 34.4533 97.3063 34.76C96.7063 35.12 95.9396 35.3 95.0063 35.3C93.9929 35.3 93.1796 35.0533 92.5663 34.56C91.8863 34.0267 91.5463 33.2667 91.5463 32.28C91.5463 31 92.1263 30.1267 93.2863 29.66C93.8596 29.42 95.1263 29.1867 97.0863 28.96C97.6863 28.8933 98.0863 28.7867 98.2863 28.64C98.5663 28.44 98.7063 28.08 98.7063 27.56C98.7063 26.1467 97.8063 25.44 96.0063 25.44C94.2063 25.44 93.2863 26.24 93.2463 27.84ZM105.297 35L101.317 24.68H102.717L105.957 33.74H105.997L109.197 24.68H110.497L106.637 35H105.297ZM111.715 35V24.68H112.975V26.46H113.015C113.242 25.8467 113.662 25.3467 114.275 24.96C114.902 24.5733 115.582 24.38 116.315 24.38C117.702 24.38 118.695 24.7333 119.295 25.44C119.828 26.08 120.095 27.0533 120.095 28.36V35H118.835V28.56C118.835 26.48 117.962 25.44 116.215 25.44C115.228 25.44 114.442 25.7733 113.855 26.44C113.268 27.1067 112.975 27.9533 112.975 28.98V35H111.715ZM126.837 24.38C128.357 24.38 129.564 24.92 130.457 26C131.297 27.0133 131.717 28.2933 131.717 29.84C131.717 31.3867 131.297 32.6667 130.457 33.68C129.564 34.76 128.357 35.3 126.837 35.3C125.317 35.3 124.111 34.76 123.217 33.68C122.377 32.6667 121.957 31.3867 121.957 29.84C121.957 28.2933 122.377 27.0133 123.217 26C124.111 24.92 125.317 24.38 126.837 24.38ZM126.837 25.44C125.691 25.44 124.784 25.9 124.117 26.82C123.517 27.6467 123.217 28.6533 123.217 29.84C123.217 31.0267 123.517 32.0333 124.117 32.86C124.784 33.78 125.691 34.24 126.837 34.24C127.984 34.24 128.891 33.78 129.557 32.86C130.157 32.0333 130.457 31.0267 130.457 29.84C130.457 28.6533 130.157 27.6467 129.557 26.82C128.891 25.9 127.984 25.44 126.837 25.44ZM139.397 35V20.72H140.757V33.84H148.757V35H139.397ZM149.919 35V24.68H151.179V35H149.919ZM149.919 22.74V20.72H151.179V22.74H149.919ZM162.131 27.92H160.871C160.511 26.2667 159.537 25.44 157.951 25.44C156.804 25.44 155.897 25.9 155.231 26.82C154.631 27.6467 154.331 28.6533 154.331 29.84C154.331 31.0267 154.631 32.0333 155.231 32.86C155.897 33.78 156.804 34.24 157.951 34.24C158.737 34.24 159.411 33.9667 159.971 33.42C160.544 32.86 160.871 32.1533 160.951 31.3H162.211C162.037 32.54 161.571 33.52 160.811 34.24C160.051 34.9467 159.097 35.3 157.951 35.3C156.431 35.3 155.224 34.76 154.331 33.68C153.491 32.6667 153.071 31.3867 153.071 29.84C153.071 28.2933 153.491 27.0133 154.331 26C155.224 24.92 156.431 24.38 157.951 24.38C159.084 24.38 160.024 24.6733 160.771 25.26C161.544 25.8867 161.997 26.7733 162.131 27.92ZM172.642 30.18H164.702C164.715 31.2467 164.982 32.1533 165.502 32.9C166.128 33.7933 166.995 34.24 168.102 34.24C169.808 34.24 170.888 33.36 171.342 31.6H172.602C172.028 34.0667 170.528 35.3 168.102 35.3C166.555 35.3 165.368 34.76 164.542 33.68C163.808 32.7067 163.442 31.4267 163.442 29.84C163.442 28.3333 163.808 27.08 164.542 26.08C165.382 24.9467 166.568 24.38 168.102 24.38C169.662 24.38 170.848 24.9867 171.662 26.2C172.368 27.2533 172.695 28.58 172.642 30.18ZM164.702 29.12H171.382C171.355 28.1067 171.055 27.2533 170.482 26.56C169.868 25.8133 169.075 25.44 168.102 25.44C167.128 25.44 166.328 25.82 165.702 26.58C165.142 27.2467 164.808 28.0933 164.702 29.12Z" fill="#212121"/>
<path d="M56 7V47" stroke="#BCBCBC" stroke-width="0.5"/>
<path d="M36 22H20C18.8954 22 18 22.8954 18 24V34C18 35.1046 18.8954 36 20 36H36C37.1046 36 38 35.1046 38 34V24C38 22.8954 37.1046 22 36 22Z" stroke="black" stroke-width="2" stroke-linecap="round" stroke-linejoin="round"/>
<path d="M32 22V20C32 19.4696 31.7893 18.9609 31.4142 18.5858C31.0391 18.2107 30.5304 18 30 18H26C25.4696 18 24.9609 18.2107 24.5858 18.5858C24.2107 18.9609 24 19.4696 24 20V22" stroke="#F54343" stroke-width="2" stroke-linecap="round" stroke-linejoin="round"/>
</svg>
