<svg xmlns="http://www.w3.org/2000/svg" viewBox="0 0 211 54"><defs><style>.cls-1{fill:#f54343;}.cls-2{fill:#fff;}.cls-3,.cls-4{fill:none;stroke:#fff;}.cls-3{stroke-width:0.5px;}.cls-4{stroke-linecap:round;stroke-linejoin:round;stroke-width:2px;}</style></defs><g id="Layer_2" data-name="Layer 2"><g id="Layer_1-2" data-name="Layer 1"><rect class="cls-1" width="211" height="54" rx="9"/><path class="cls-2" d="M76,21.76v4.72h3.66a2.77,2.77,0,0,0,1.68-.5,2.17,2.17,0,0,0,.82-1.86c0-1.57-.82-2.36-2.46-2.36ZM73.52,34V19.72h6.3a4.78,4.78,0,0,1,4,1.54,4.47,4.47,0,0,1,.9,2.88,4.33,4.33,0,0,1-.9,2.84,4.78,4.78,0,0,1-4,1.54H76V34Zm13,0V23.66h2.14v2h0a2.82,2.82,0,0,1,1.1-1.56,3,3,0,0,1,1.92-.72c.17,0,.46,0,.86.06v2.2c-.53-.07-.86-.1-1-.1a2.47,2.47,0,0,0-2,.92,3.88,3.88,0,0,0-.82,2.62V34ZM100,30.52v-1.7a3.36,3.36,0,0,1-1.28.42l-1.52.2c-1.24.21-1.86.79-1.86,1.72a1.13,1.13,0,0,0,.76,1,3,3,0,0,0,1.34.28A3.22,3.22,0,0,0,99.05,32,1.69,1.69,0,0,0,100,30.52Zm2.28-4.14V31.7q0,.78.54.78a3.13,3.13,0,0,0,.56,0V34a4.39,4.39,0,0,1-1.44.26c-1,0-1.6-.42-1.76-1.26a4.88,4.88,0,0,1-3.58,1.26,3.82,3.82,0,0,1-2.46-.76,3,3,0,0,1,.2-4.74A8,8,0,0,1,97,28l2.16-.32a1.13,1.13,0,0,0,.94-1.14c0-.93-.71-1.4-2.14-1.4s-2.19.55-2.28,1.64H93.39q.19-3.43,4.7-3.44a5.4,5.4,0,0,1,2.82.68A2.56,2.56,0,0,1,102.23,26.38ZM107.42,34l-3.76-10.34h2.48l2.62,7.94h0l2.52-7.94h2.36L110,34Zm7.63,0V23.66h2.16v1.52l.05,0a3.52,3.52,0,0,1,3.22-1.84,3.75,3.75,0,0,1,2.67.9,3.35,3.35,0,0,1,1,2.62V34h-2.28V27.5c0-1.55-.67-2.32-2-2.32A2.35,2.35,0,0,0,118,26a2.86,2.86,0,0,0-.67,1.94V34Zm16.23-1.52a2.57,2.57,0,0,0,2.24-1.16,4.24,4.24,0,0,0,.7-2.5,4.2,4.2,0,0,0-.7-2.48,2.74,2.74,0,0,0-4.48,0,4.2,4.2,0,0,0-.7,2.48,4.24,4.24,0,0,0,.7,2.5A2.57,2.57,0,0,0,131.28,32.48Zm0,1.8a5,5,0,0,1-3.86-1.54,5.55,5.55,0,0,1-1.36-3.92,5.57,5.57,0,0,1,1.38-3.92,5.61,5.61,0,0,1,7.7,0,5.53,5.53,0,0,1,1.36,3.9,5.55,5.55,0,0,1-1.36,3.92A5,5,0,0,1,131.28,34.28Zm13-.28V19.72h2.5V31.84H154V34Zm11.23,0V23.66h2.28V34Zm0-12.12V19.72h2.28v2.16Zm14,5.24h-2.28a2.1,2.1,0,0,0-2.36-1.94,2.54,2.54,0,0,0-1.86.7,4.15,4.15,0,0,0-1,3.06,4.41,4.41,0,0,0,.62,2.42,2.38,2.38,0,0,0,2.12,1.12,2.27,2.27,0,0,0,1.64-.62,3,3,0,0,0,.82-1.74h2.28q-.66,4.15-4.74,4.16a4.71,4.71,0,0,1-3.72-1.54,5.44,5.44,0,0,1-1.3-3.8,5.91,5.91,0,0,1,1.28-4,4.73,4.73,0,0,1,3.82-1.6,5.15,5.15,0,0,1,3.14.92A3.74,3.74,0,0,1,169.53,27.12Zm11.23,2.3h-7.6a3.3,3.3,0,0,0,.68,2.14,2.57,2.57,0,0,0,2.1.92,2.42,2.42,0,0,0,2.52-1.72h2.16a4.17,4.17,0,0,1-1.66,2.6,5.05,5.05,0,0,1-3,.92,4.75,4.75,0,0,1-3.72-1.5,5.7,5.7,0,0,1-1.34-3.94A5.7,5.7,0,0,1,172.22,25a4.65,4.65,0,0,1,3.66-1.62,4.52,4.52,0,0,1,3.58,1.6,5.3,5.3,0,0,1,1.34,3.68A6.45,6.45,0,0,1,180.76,29.42Zm-7.6-1.5h5.32A3,3,0,0,0,177.7,26a2.3,2.3,0,0,0-1.82-.8A2.58,2.58,0,0,0,174,26,2.88,2.88,0,0,0,173.16,27.92Z"/><path class="cls-3" d="M56,7V47"/><path class="cls-4" d="M36,22H20a2,2,0,0,0-2,2V34a2,2,0,0,0,2,2H36a2,2,0,0,0,2-2V24A2,2,0,0,0,36,22Z"/><path class="cls-4" d="M32,22V20a2,2,0,0,0-2-2H26a2,2,0,0,0-2,2v2"/></g></g></svg>